<?xml version="1.0" encoding="UTF-8"?>
<svg id="Layer_1" data-name="Layer 1" xmlns="http://www.w3.org/2000/svg" viewBox="0 0 589.66 475">
  <defs>
    <style>
      .cls-1 {
        fill: #35a0a3;
      }

      .cls-2 {
        fill: #359ca0;
      }

      .cls-3 {
        fill: #318c8f;
      }

      .cls-4 {
        fill: #1d5153;
      }

      .cls-5 {
        fill: #3dbdc0;
      }

      .cls-6 {
        fill: #39b0b4;
      }

      .cls-7 {
        fill: #98d5d7;
      }

      .cls-8 {
        fill: #eef1f1;
      }

      .cls-9 {
        fill: #339699;
      }

      .cls-10 {
        fill: #3fbfc2;
      }

      .cls-11 {
        fill: #51c4c8;
      }

      .cls-12 {
        fill: #eef1f1;
      }

      .cls-13 {
        fill: #62c8cb;
      }

      .cls-14 {
        fill: #66c9cc;
      }

      .cls-15 {
        fill: #2f8285;
      }

      .cls-16 {
        fill: #eef1f1;
      }

      .cls-17 {
        fill: #6ecacd;
      }

      .cls-18 {
        fill: #1d5153;
      }

      .cls-19 {
        fill: #4ec4c7;
      }

      .cls-20 {
        fill: #328f92;
      }

      .cls-21 {
        fill: #eef1f1;
      }

      .cls-22 {
        fill: #286567;
      }

      .cls-23 {
        fill: #dab2d1;
      }
    </style>
  </defs>
  <g id="Generative_Object" data-name="Generative Object">
    <path class="cls-23" d="M589.66,472.97v2.03s-3.07-.04-3.07-.04c.03-.52.06-1.07.31-1.77l2.77-.22Z"/>
    <g>
      <ellipse class="cls-18" cx="278.24" cy="238.04" rx="233.12" ry="233.1"/>
      <path class="cls-12" d="M387.87,173.41c1.2-.66,1.22-.36.63.82l-3.33,4.67c-5,5.89-10.42,11-16.8,15.44l-25.36,17.67c-2.6-11.7-6.05-18.37-15.16-26.31,6.47.11,12.18,1.43,18.15,3.19.64-1.75.54-3.45-.07-5.06l-3.13-8.29,5.59,3.74c3.96,2.07,8.24.44,10.35-3.29,2.51-4.43.95-9.39-3.78-11.5-4.25-1.9-8.71-2.16-13.76-2.24,4.44-2.72,8.07-6.02,6.09-10.15-3.13-6.52-22.15-3.83-29.39,10.69l-11.74,23.55c-4.94,9.91-10.15,19.3-17.14,27.89-3.33,4.09-7.38,6.79-11.51,10.06-1.6,1.27-4.24,3.11-4.24,5.4,3.13,6.6,5.93,12.92,7.93,19.82,2.12,7.3,13.07,9.07,19.26,6.95,3.58-1.23,5.47-4.48,4.59-8.27-.98-4.22-3.61-7.72-6.72-10.62l-4.66-4.35c4.73,1.32,8.5,3.24,13.12,4.09s9.93-.08,13.18-3.87c5.01-5.84,2.88-14.24-3.57-18.08-3.24-1.93-6.53-2.55-10.62-3.55l8.37-3.64c3.78-1.64,7.05-4.17,9.21-7.67s1.59-8.17-1.82-10.7c-1.99-1.48-4.13-1.91-6.58-3.05,2.23-.72,5.13-1.92,7.32-1.26,10,8,19.27,26.22,10.68,35.88-3.33,3.75-3.75,8.86-.66,12.98,3.72,4.94,7.87,9.37,12.29,13.74,4.02,3.98,10.89,12.54,8.16,14.98-1.05.94-2.31,1.57-3.91,2.21-.78-4.69-1.43-9.52-5.02-12.81l-6.4-5.88c-1.63,5.52-2.15,10.87-2.06,16.46.07,4.42-1.13,8.17-4.42,11.07-5.83,5.15-11.05,10.77-15.52,17.26,6.6,14.71,3.94,31.57-7.23,43.4l-8.95,9.47c-9.28,9.82-16.85,18.08-20.24,32.02l-4,16.47c-5.65,23.28-26.32,39.12-48.89,45.2-11.57,3.11-23.18,4.14-35.12,3.85-6.82-2.9-12.86-5.94-19.23-9.65-30.6-17.04-56.42-40.64-76.17-69.69-10.58-15.56-19.43-32.59-25.79-50.18-24.19-66.86-13.96-141.04,26.41-199.36,16.71-24.14,38.1-45.08,62.79-61.35,30.73-20.25,65.97-32.12,102.64-35,52.57-4.12,104.79,11.16,146.96,42.7,25.45,19.04,46.61,43.05,62.29,70.74,35.61,62.89,38.16,139.89,6.16,204.79-19.93,40.4-52,74.95-91.4,96.9-6.99,3.89-13.57,8.1-21.34,10.3-3.7,1.05-8.56-.74-12.18-1.86-8.55-2.65-16.05-7.14-22.76-13.04-9.73-8.56-15.13-20.27-17.8-32.84-2.27-10.69-1.84-20.96-.22-32.11-3.69,5.63-6.19,11.39-7.76,17.71l-4.1,16.46c-7.68,30.82-25.9,49.81-55.3,61.24l-23.8-5.34,21.92-4.68c11.92-3.55,22.76-9.29,31.9-17.69,9.61-8.84,15.94-19.96,19.07-32.62l4.68-18.92c3.4-11.52,8.58-21.85,15.29-31.77s14.2-18.05,23.72-24.91c15.3-11.01,33.1-16.77,52.02-16.08,4.85.18,9.63,0,14.23-1.13,5.9-1.44,14.19-9.7,24.69-10.23,6.19-.31,12.1,1.03,18.02,2.63,2.66.72,4.86.32,6.72-1.88l10.04-11.86c6.14-7.25,11.87-8.09,21.46-8.75l1.06-6.16-8.66-.1,5.27-5.79c6.59-7.24,5.69-12.79,5.15-22.89l-7.56,11.71c-2.77,4.3-5.9,7.88-9.38,11.68l-20.01,21.84c-1.86,2.03-4.03,2.36-6.65,1.96l-12.9-1.95c-6.83-.27-13.5,1.34-19.59,4.48-7.11,3.67-14.2,5.54-22.41,4.93-22.64-1.67-44.47,4.14-63.57,17.17,4.62-15.05,12.67-27.77,27.15-32.9l14.78-5.24c2.54-.9,2.64-5.1,1.8-7.49-2.14-6.11-5.78-11.21-10.07-16.01l-15.46-17.28c-1.72-1.92-2.16-4.66-.48-6.93,2.1-2.83,4.33-5.8,7.21-8.09l29.03-23.1c3.42-2.72,5.86-6.14,8.33-9.63l8.73-12.34c10.03-15.01,24.18-27.69,41.42-34.7-6.95,6.01-14.35,10.38-20.77,16.53-4.96,4.75-9.1,9.82-13.24,15.46l11.41-3c5.9-1.55,12.01-1.41,17.91-.27-13.08,1.61-25.21,5.06-36.14,12.62,6.92,6.02,16.94,14.28,25,10.35,2.5-1.22,3.42-4.28,1.75-6.35l-2.6-3.22,9.3,1.64c6.52,1.15,11.76-8.83,13.04-15.63.88-4.69-1.96-8.35-6.66-9.33,6.17-2.15,11.7-4.07,15.95-8.47,4.69-4.86,6.62-11.57,4.44-17.91l-3.93-7.34c-2.1-3.91-6.27-1.44-10.56,1.57l.68-4.35c.16-1.05-.52-1.95-1.2-2.27-2.98-1.4-7.68,2.78-10.62,6.47-3.59,4.52-6.15,9.33-8.63,14.49l-.35-6.67c-8.35,8.84-16.99,16.75-26.33,24.38l-11.86,9.69.46,9.83,3.51-2.27Z"/>
      <g>
        <path class="cls-12" d="M325.03,455.07c-15.4,3.31-30.67,5.2-46.83,4.96,12.93-7.97,21.15-19.56,25.56-34.39,5.9,8.58,13.16,15.78,22.64,20.25l13.76,4.86-15.13,4.32Z"/>
        <path class="cls-10" d="M388.5,174.23l-.63-.82c.83-.53,1.24-1.78,2.57-1.89l-1.94,2.71Z"/>
        <path class="cls-4" d="M470.51,193.25c.16.3.08.49-.15.7-5,4.67-5.73,3.89-.01,0,.1-.07.3.02.53.15l10.09-7.71,4.32,19.46-3.75-.65c1.57,4.56,3.44,8.51,3.62,13.32-9.98.39-18.98-9.06-23.55-18.08-4.14,1.56-8.2,2.04-12.5,2.5l-16.18,1.72,14.52,7.66c5.35,2.82,9.84,6.85,13.21,11.81.7,1.04,1.15,2.41-.06,3.38-6.6-6.37-13.76-11.05-22.16-14.34l-18.79-6.88c-10.91-.06-21.48,0-32.27,1.33-4.75.59-9.15,1.73-13.06,4.44-4.99,3.46-8.99,7.98-11.65,13.42l-7.13,14.56-9.19-8.92c2.97-4.41,4.62-9.76,8.38-13.66l17.35-14.79c5.31-4.53,19.33-3.93,28.25-4.12l52.04-1.13c4.95-.11,9.44-1.84,12.65-5.56-5.52.84-10.18,2.24-15.86,1.97,2.69-4.17,4.8-8.34,6.41-12.98.39-1.46.25-1.72-.43-.77-3.5,5.11-6.69,10.28-11.57,14.23-1.71,1.38-4.76.94-6.81.34,2.72-6.34,5.73-11.86,7.3-18.27,1.09-4.47,1.64-8.95,4.05-12.82,1.83-2.94,4.67-4.94,7.37-5.39,3.89-.64,7.36.21,9.92,2.95,3,3.2,3.54,7.44,3.41,12.16l5.85-7.32,5.25,16.76c-1.44,2.38-3.18,4.17-5.02,6.06l-4.38,4.5Z"/>
        <path class="cls-4" d="M227.15,156.96c3.39,6.27,4.55,13.14,5.55,20.5-6.01-2.13-11.61-3.77-17.7-5.53-2.94-12.29-5.18-21.53-15.77-29.3-3.94-5.48.23-14.4,1.84-21.33-4.5,4.73-6.46,10.12-7.01,16.54-6.03-3.48-11.14-7.95-14.46-13.92-4.56-8.2-3.05-21.48,3.79-23.26,4.92-1.28,8.44,2.62,10.79,8.09,2.26-7.03,6.82-12.5,13.48-15.22,5.83-2.38,11.76-.09,13.69,6.15.85,2.74,1.06,5.93.35,8.83l-2.63,10.83c3.98-4.38,7.62-9.4,12.83-8.12,1.57.39,3.36,1.77,4.25,3.75,1.59,3.53,1.18,7.45-1.1,10.54l-6.74,9.08c-3.13,4.22-4.46,9.03-3.44,14.41l-8.42-4.72c.31,6.82,8.88,9.29,10.7,12.67Z"/>
        <path class="cls-4" d="M396.49,284.28c-9.07-1.21-16.9-11.33-14.68-20.9l7.91-.58,5.2,7.67c-.16-4.01-1.31-7.4-3.39-10.36-6.99-.86-13.54-.06-20.27,1.61l-3.87-7.21c15.14-3.76,26.92-1.97,41.34,4.23l16.65,8.57-5.11-5.42c3.93-1.45,7.74-1.84,10.82-4.33l-10.94,1.75c-2.93.47-5.86-.68-8.56-1.94-9.91-4.62-20.69-8.57-32.1-7.59,4.29-7.09,17.1-18.64,21.65-13.14,1.87,2.26.93,5.31.11,8.03,6.9-4.86,18.17-13.69,25.27-12.49,1.91.32,3.7,1.4,4.34,2.66,2.53,4.94-3.29,9.64-8.28,13.37,6.38-.19,11.92-1.81,17.81-3.39,2.61-.7,5.67-.8,7.61,1.25,3.1,3.28,2.21,8.56-1.3,11.21-1.89,1.42-3.71,2.77-5,4.78-2.32,3.61,1.69,9.97-3.63,13.61-2.66,1.82-5.83,1.92-8.61.17l-5.35-3.37c-8.21-5.18-16.76-9.49-26.38-11.57.78,1.92,1.35,3.31,1.69,5.44.16-.27.57-1.4,1.03-1.61,8.72,1.55,16.58,5.64,23.42,11.18-3.44.97-5.76,2.29-8.28,4.06-4.78,3.34-8.29,1.64-12.2-2.76-.34,2.27-.48,4.07-1.66,5.51-1.11,1.37-3.28,1.84-5.26,1.58Z"/>
        <path class="cls-4" d="M170.47,186.63c-.37.66-.22.78.45.36,6.81-4.6,13.86-7.46,19.6-1.77,6.35,6.3,11.54,13.33,16.59,21.14-5.69,3.14-12.3,1.99-16.7-2.89.31,5.42-.45,10.44-3.9,14.15-2.4,2.59-5.95,3.59-8.99,2.32s-4.62-4.54-4.57-8.09c.06-3.76,1.49-6.97,2.14-10.89l-6.81,8.73c-2.37,3.04-5.34,5.5-9.12,6.2-4.29.8-7.98-1.24-9.52-5.27-3.4-8.86,3.23-17.12,11.29-22.22-8.21,1.98-19.08,3.34-22.1-3.66-3.74-8.66,8.17-16.91,15.29-17.03,9.43-.17,18.05,4.08,25.79,9.36-3.35,3.33-6.63,6.05-9.45,9.56Z"/>
        <path class="cls-4" d="M249.59,195.94c1.03-2.39,2.94-5.82,5.74-5.77,2.34.05,3.76,2.82,5.75,3.94-1.86-7.35-2.49-17,2.62-21.53,1.46-1.3,3.37-1.28,4.8.15,2.28,2.37,3.43,5.21,4.73,8.21.36-8.68,2.75-18.9,9.64-22.87,3.11-1.8,6.72-1.14,8.79,1.75,3.66,5.09,4.37,11.87,1.11,17.28l-10.98,18.2c-6.32,10.47-16.68,14.24-25.53,21.91l-6.11-9.26c-2.42-3.67-2.88-7.75-.56-11.99Z"/>
        <path class="cls-4" d="M445.06,263.47c.13-3.09,5.4-1.17,6.88-1.71.6-.22,1.19-1.18,1.25-2.06l.62-9.93c.3-4.74.76-10.41,5.09-10.92,1.85-.22,3.41.7,4.85,2.39,1.94-5.6,5.74-11.59,10.29-10.37,4.83,1.3,5.63,11.92,2.82,17.16-1.57,2.94-4.05,5.15-6.29,7.57l-21.16,22.91c-2.95-4.35-4.59-9.59-4.36-15.04Z"/>
        <path class="cls-4" d="M181.98,256.09c-4.17-2.7-7.55-6.44-10.39-10.5s-1.82-10.32,1.02-14.87l10.6,2.87c.08,6.66,2.74,11.6,6.55,17.17-2.8,1.66-4.98,2.82-7.78,5.32Z"/>
        <path class="cls-18" d="M117.92,303.77c-4.53-3.25-8.52-5.53-13.74-7.52,10.41-4.31,15.56-8.08,26.74-3.14-3.98,4.35-8.21,7.17-13,10.66Z"/>
        <path class="cls-1" d="M470.88,194.11l-4.75,3.56-.36-.4,4.74-4.02c.13.41.25.56.37.86Z"/>
        <path class="cls-5" d="M455.55,180.84c-.02-.37-.21-.6-.43-.77.46-.67.36-1.67,1.42-1.99.16,1.19-.69,1.9-.99,2.76Z"/>
        <path class="cls-19" d="M170.92,187c-.32.21-.65,1.29-1.45.68-.02-.39.76-.74,1-1.05l.45.36Z"/>
        <g>
          <path class="cls-4" d="M281.32,92.13c.6-.05.84-.24.73-.59-3.22-4.37-6.42-8.75-8.39-14.06-3.71-9.95-2.17-22.07,6.41-25.17,4.1-1.48,7.57-.57,10.99,1.64,5.79,3.74,10.23,8.58,15.15,13.81-4.22-10.39-12.56-22.81-6.36-31.65,5.46-7.79,18.23-6.81,26.76.73,4.12,3.64,6.55,8.47,8.52,13.48.92-3.46,1.95-6.53,4.34-8.68,3.21-2.89,7.46-2.91,10.61-.18,7.57,6.56,6.35,18.1,5.2,28.42,3.29-8.1,10.18-18.53,18.86-17.62,5.23.55,5.48,6.85,4.62,13.03,4.79-3.54,10.4-4.23,15.56-1.35,6.66,3.72,12.66,8.54,18.36,13.63,5.21,4.65,5.65,12.09.87,17.08-3.59,3.75-7.95,6.36-12.56,8.68-.03.79.54.8,1.27.71,4.75-.91,10.28-1.88,12.09,1.44,1.97,3.63-4.36,9.31-9.17,12.14,2.07.42,4.28-.01,5.65,1.34,3.8,3.73-8.1,12.24-14.41,15.33-4.46,2.18-7.91,5.12-11.41,8.58-3.92,3.88-7.37,8-8.42,14.18,12.45-8.16,24.07-17.24,35.35-27.11,5.16-4.51,9.55-9.08,14.09-14.14,4-4.47,6.98-9.4,9.89-14.67,1.2.94,2.58,1.79,2.92,3.02.64,2.33-8.27,14.51-11.69,17.92l-15.88,15.85-33.32,28.02c-1.92,1.62-3.66,3.9-4,6.26l-1.75,12.09c-.73,5.04-5.43,7.99-10.51,10.44l1.98-12.84,2.07-12.78c1.28-7.87,1.34-15.58-.76-23.39l-7.65-.52c-8.17-.55-16.22-7.44-17-16.56l-8.94,6.23c-5.12,3.57-8.97,8.57-11.83,14.25l-20.02,39.79c-3.15,6.27-6.49,12-10.48,17.69-2.79,3.98-5.92,7.27-9.77,10.23-4.92,3.78-12.74,8.48-12.03,13.41.84,5.85,6.99,12.59,7.54,18.56l.98,10.67c.58,6.26,4.03,11.16,9.33,14.37l16.93,10.23c3.53,2.13,6.47,5.65,8.5,9.31,6.66,12.03,4.6,26.53-4.21,37.01l-16.45,17.28c-5.42,5.7-9.09,11.69-12.44,19.43-4.65-23.17-27.65-24.94-48.08-22.03l-20.05,2.86c-6.34.9-12.35-1.04-16.92-5.48-3.35-3.26-7.47-4.77-12.27-4.36-8.75.76-17.23,2.27-25.8,4.03-3.24.67-5.81.07-8.65-1.67-7.14-4.41-13.85-9.15-21.67-12.54-9.53-4.14-19.82-5.28-29.87-4.25,10.69,1.62,20.75,3.24,29.99,8.84-4.13,1.89-7.4,3.9-10.44,6.64-.42,1.01-.27,1.3.45.85l7.68-4.25c5.93-3.28,11.6,1.44,16.82,6l-5.42,12.95c-1.5,3.59-4.92,5.34-8.25,4.86-3.86-.56-6.77-3.17-6.97-7.25l-.25-4.95c-1.97,2.36-3.66,4.57-6.15,6.29-2.76,1.9-6.89,1.55-8.84-1.49-9.26-14.4-16.81-29.64-22.71-46.12,4.87-1.84,9.81-1.02,14.23.96l7.09,4.32-1.09-4.23c-.42-1.62.52-2.94,1.55-3.9,2.66-2.45,8.49-.2,12.47,2.24l9.01,5.53c1.07-2.37,1.91-4.4,3.57-5.98,4.7-4.49,11.85-4.01,15.91,1.19,4.52,5.79,5.05,13.82,1.48,20.61-8.9-4.78-18.32-8.13-28.86-8.15,8.29,2.51,15.95,5.05,23.5,9.22,3.74,2.07,7.58,4,11.69,5.21,3.26.96,6.83.2,10.07-.49l18.55-3.97c14.05-3.01,18.7,9.41,27.06,8.44l10.12-1.18-7.2-5.08c-4.32-3.05-7.97-6.62-11.23-10.75-3.79-4.79-9.14-7.22-15.25-7.21l-13.28.02c-7.26.01-14.23-2.77-18.72-8.54-3.75-4.82-3.45-12.11-11.34-14.81l-12.93-4.42c-6.01-2.05-11.82-7.04-9.87-13.06,1.38-4.25,8.58-5.21,13.05-9.24,3.06-2.76,3.54-6.34.9-9.44-6.16-7.24-15.44-10.64-24.85-8.71-.28.37-.24.71.12,1.02,5.81.74,11.39,2.07,16.13,5.57,1.55,1.14,4.16,2.7,4.14,4.83s-3.11,3.75-4.85,4.74l-6.6,3.73c-5.33,4.16-6.31,11.06-2.86,16.85.66,1.12.93,2.46.58,3.65-1.04,3.53-7.86,3.79-12.43-1.03-1.32-1.39-2.37-2.7-3.35-4.64-1.47,3.73-2.84,7.25-5.3,10.45-3.5,4.55-8.52,8.05-12.28,5.26-4.57-3.4-1.3-12.16,2.39-17.99.18-1,0-1.25-.54-.76l-7.08,5.83c-1.09-3.35-2.07-6.48-2.33-9.85-.64-8.49,15.87-16.79,11.62-20.49-3.85-3.35-12.97-3.28-14.66-10.15.04-1.46,2.54-2.65,3.8-3.12,5.49-2.07,10.87-1.4,16.57.6-3.33-3.91-9.35-8.72-7.34-11.64,2.48-3.61,13.6-1.77,20.15-.07-.96-2.94-1.95-5.79-.76-8.5,2.06-4.68,12.73-2.39,19.92,4.18.44.1.67-.07.68-.51-8.22-11.85-19.41-17.19-34.28-16.14l-9.73.69c-.49.03-.95-.39-1.18-.51-.31-.16-.47-1.23.03-1.37,4.37-1.29,8.34-2.74,12.51-4.45-5.04-2.66-9.74-4.52-15.05-6.56,1.03-6.09,2.58-11.86,4.47-17.87,3.62-11.17,7.93-21.65,13.55-32.53,7.16,6.39,15.15,10.28,23.76,13.92-8.48,2.86-16.01,5.72-23.18,9.99-.1.45,0,.7.44.71,6.28-2.07,12.64-3.68,19.28-5.27,2.86-.69,5.64-1.47,8.64-1.33.07,6.21-4.83,11.31-2.37,16.84l5.76-2.91c3.04-1.53,5.62.95,6.46,3.92,1.67,5.92-.59,11.63-6.26,14.16l-7.93,4.28-2.6-7.8c-1.7-5.1-4-9.95-8.2-13.45.46,3.55,1.62,6.17,2.82,9.66-6.18,6.95-9.82,4.4-18.61.71,4.61,6.4,7.65,13.78,15.16,16.57,5.97,2.22,11.36,5.06,16.91,8.45.16-5.3-.28-9.87,1.34-14.54,1.83,1,2.15,2.82,2.3,4.49,1.2,13.33,7.09,22.28,11.03,34.41,1.34-5.71,2.69-12.86,7.16-13.07s6,7.3,6.2,13.22c4.33-4.11,11.74-11.84,14.63-10.49,2,.93.42,9.19-1.13,13.76l-5.29,15.68-4.55,10.2c5.88-3.78,9.17-9.4,12.04-15.25l8.88,8.46c4.24,4.04,5.98,9.46,4.77,15.2-.77,3.65-2.69,7.57-6.45,8.85-3.08,1.05-6.57-.34-9.4-1.66-5.89-2.74-11.68-4.72-18.03-5.18-1.52-5.08-2.72-9.57-5.74-14.12-4.3,8.07-12.59,9.65-13.36,12.08s4.58,4.29,8.68,5.45l12.79,3.62c5.41,1.53,7.03,11.71,11.48,15.62,3.21,2.82,7.59,3.78,11.84,3.66l14.34-.4c7.05-.2,13.34,2.61,18.1,7.72,1.22,1.31,2.37,2.56,3.94,3.58.88-6.9-1.03-12.64-4.18-18.25-2.17-3.87-1.24-8.73.82-12.55l7.16-13.32c3.07-6.99,5.03-14.49,2.74-21.91-1.17,9.95-3.8,18.21-8.64,26.27l-6.21,10.35c-5.9-3.83-12.42-8.45-15.78-14.37-2.73-4.81-1.05-10.24,3.85-12.65l10.86-5.35c-7.57-3.4-9.92-9.86-9.64-17.92,4.48-.15,8.53.48,13.08,1.68-.94-4.9-.92-9.51,1.69-13.48,1.54-2.33,3.96-3.32,6.62-2.3,7.99,3.06,12.26,11.94,16.07,19.78,6.41,13.19,14.36,25.15,24.83,35.72-5.3,2.01-10.32,2.49-15.81,2.85,2.29,1.99,4.64,3.45,5.96,6.3,1.15,2.47.69,5.56-2.06,7.18-3.25,1.91-8.79,4.19-12.54,2.75-6.46-5.1-12.25-4.34-13.04-5.19-.37-.4-.46-1.28-.36-2.07.68-5.37,3.77-9.8,7.76-13.41s8.35-5.12,13.57-6.78c-11-1.19-20.82,5.29-23.97,15.9-1.29,4.34-1.58,8.4.89,12.49,2.05,3.4,3.59,7.21,4.06,11.25l1.17,10.1c.78,6.79,10.51,10.75,15.96,11.14l17.09,1.22c5.73.41,11.13.56,16.69,1.85,5.15,1.19,9.9,2.81,14.62,5.68,3.58-5.96,7.81-10.87,12.62-15.66,5.99-5.98,6.32-15.09.32-21.19-1.99-2.02-4.11-4.11-6.62-5.61-6.12-3.67-11.83-7.36-17.65-11.57-13.8-9.96-27.51-25.73-35.23-40.99l-9.28-18.35c-5.4-10.68-11.61-20.23-18.9-29.73s-15.8-18.13-26.54-24.12c-11.3-6.31-23.54-9.78-36.38-11.24-19.35-2.2-33.66-4.9-49.84-16.65l3.86-7.13c11.15,10.19,19.79,14.42,35.08,15.85,17.88,1.67,35.59,3.44,51.68,11.71,5.62,2.89,10.67,6.06,15.73,9.61.34-19.91-19.15-26.59-24.21-33.39-2.21-2.97-4.15-5.93-6.72-8.66-3.84-4.08-8.05-7.99-10.22-13.23l-8.69-21.05c.69,7.96,3.11,15.06,5.57,22.9-6.24-3.32-11.61-7.19-18.66-8.39,2.58,1.69,4.92,3.23,7.62,4.8,10.08,5.86,19.1,13.01,26.11,22.95l-9.49,4.4c-6.68,3.1-18.56,6.4-22.21,1.48-3.13-4.22,0-8.67,3.89-12.82-9.2,3.91-24.62,9.56-29.81,1.66-1.91-2.91-1.01-6.68.69-9.63,2.8-4.86,7.68-7.6,12.83-9.67-6.36-.73-11.61-4.68-9.21-7.63,7.13-8.74,11.47-16.4,21.93-10.3-.77-4.65-1.24-9.2,1.28-13.09,3.15-4.86,10.07-10.37,15.27-8.69,5.97,1.93,6.44,10.99,5.8,18.36,1.74-2.43,3.71-4.4,6.6-4.17,5.99.46,5.67,11.03,4.63,18.18-1.33,9.11-2.57,16.51,3.68,23.54,2.46,2.76,4.85,5.3,7.75,7.62l13.61,10.92c5.9,4.73,9.34,11.24,10.43,18.74,1.06,5.23,1.59,10.26,3.01,15.49,4.52,7.61,9.8,14.42,16.05,20.99.91-3.91,2.94-7.14,5.21-10.47,6.31-9.28,8.9-15.47,5.22-26.85-4.02-12.42-10.94-23.67,1.42-31.52l6.86-4.36c2.43-1.54,3.03-4.34,1.94-7.12-2.28-5.86-5.41-11.28-9.02-16.49s-6.47-10.11-9.41-15.8c-1.57-3.05-4.04-7.39-7.46-8.59-7.81-1.19-16.27,5.76-22.63,6.96-2.65.5-5.66-.27-6.9-2.69s-.21-4.62.85-6.95c-6.68,3.91-11.12,6.35-18.03,2.15-1.9-1.15-3.27-2.47-3.73-4.34-.92-3.72,1.37-6.71,5.42-8.85-4.71-.03-11.33-.68-11.46-3.58-.18-3.77,12.82-10.32,18.68-13.35s10.9-5.74,16.76-7.77c6.85-2.38,13.51.32,16.7,6.78,3.38,6.84,4.98,17.28,4.72,25.7-4.37-2.71-9.09-4.63-12.82-7.91l-3.42-10.13c-.6-.73-.85-.31-.76,1.28l1.75,7.79-6.07-3.57c-1.65-.18-2.99-1.18-4.42-2.37-.18-.13,3.69,2.38,3.14,2.77l10.66,8.81-12.33-1.21c-2.48.14-4.98-.12-7.51-.78-.3-.06,5.79.74,5.71,1.44l13.24,3.12c4.09.96,7.75,2.55,11.5,4.35l7.7,2.49-3.62-14.69c-1.68-6.8-3.35-13.33-4.28-20.33-.75-5.58,2.06-10.81,7.75-12.33,11.37-3.05,22.9-5.12,34.71-6.16,3.04-.27,6.24.6,7.76,3.08,3.78,6.21-5.36,14.58-12.51,17.82,2.82-.02,5.34-.04,7.22,1.84,1.63,1.63,1.46,4.17.29,6.16-3.92,6.69-15.02,11.09-22.97,13.29-2.63.73-5,1.52-7.39,2.95-2.09,10.7-.14,16.38,6.48,24.74,5.86,7.4,11.25,14.85,14.6,23.72,5.73,15.14-9.01,16-12.9,22.12-1.48,2.33-1.17,5.36-.22,7.99,2.08,5.76,4.47,11.05,5.82,17.19,2.45-2.05,3.48-4.88,2.61-7.76l-2.63-8.73c-.47-1.55-1.1-5.04.49-6.17,3.89-2.75,7.92-4.87,11.32-8.26,2.46-2.45,4.41,3.62,4.42,9.58l3.96-2.23c2.3-1.3,4.84.01,6.14,1.66,3.52,4.45-1.79,9.57-7.73,12.68-3.63,1.9-7.28,3.72-10.15,6.71-7.45,7.78-6.74,18.89-14.6,30.45-6.34,9.32-5.49,20.54-.76,30.67,5.05,10.82,11.77,20.37,20.57,28.82,1.51-3.7,1.13-7.76-.45-11.6l-4.92-11.98c-2.87-6.98,3.31-14.19,9.54-18.13,7.99-5.05,14.8-11.37,19.81-19.6,8.61-14.17,16.27-28.56,23.48-43.45,2.91-6.01,3.16-12.31.55-18.24-6.4,3.72-17.96,11.92-20.32,6.08-1.08-2.68.39-5.12,1.92-7.56l-7.32,2.69c-5.79,2.13-14.73-1.36-14.72-6.96,0-5.12,5.33-7.72,10.75-9.6-11.76-3.12-25.1-13.05-23.87-25.53.47-4.78,4.08-8,8.94-7.63,2.85.22,5.5,1.33,7.91,2.81l7.19,4.39Z"/>
          <g>
            <path class="cls-3" d="M197.84,71c-.8.02-1.5.1-1.8.67l-5.71-1.44,7.51.78Z"/>
            <path class="cls-7" d="M200.78,63.01c-.22-.08-.72-.36-.89-.3s-.29.65-.38.7c-1.19-.98-2.5-1.63-3.42-3l4.69,2.6Z"/>
            <path class="cls-9" d="M205.86,57.51c-.66.06-.74.8-.76,1.28-.33-1.48-1.03-2.84-.76-4.6.89,1.01,1.1,2.07,1.52,3.32Z"/>
            <path class="cls-17" d="M114.14,340.01c-1.03.57-1.65,1.73-3.09,1.84.74-1.16,1.7-1.85,2.64-2.69.11.36.3.54.45.85Z"/>
            <path class="cls-11" d="M105.66,244.64l.12,1.02h-2.42c.45-1.37,1.4-.83,2.3-1.02Z"/>
            <path class="cls-6" d="M81.34,277.07l-.54-.76c.54-.44.94-1.42,2.06-1.44-.3,1-1.05,1.47-1.52,2.2Z"/>
            <path class="cls-13" d="M92.71,168.46c-.92.3-1.72,1.37-3.22.74l2.78-1.46c.04.34.22.51.44.71Z"/>
            <path class="cls-22" d="M120.67,223.08l.68-.51,1.04,1.51c-1.21.42-1.25-.57-1.73-1Z"/>
            <path class="cls-16" d="M371.92,149.59c-1.5-2.34-3.32-3.99-5.39-5.89-1.02-.93-1.23-2.7-1.49-4.07l-3.52-18.45,9.17,15.46,8.05-22.29c.96,8.22-.55,15.58-2.28,23.45l6.44-.07-5.25,4.96c-2.2,2.08-4.17,3.97-5.73,6.9Z"/>
            <path class="cls-21" d="M236.11,60.11l-1.37,11.97c-.44.88-2.73,1.04-3.62.78l1.82-11.43,2.26-20.54,1.17,14.15,13.25-11.06c-3.81,5.79-8.56,10.88-13.51,16.14Z"/>
            <g>
              <path class="cls-20" d="M402.24,104.06c-1.34.26-2.46,1.01-4.1.72l2.84-1.42c.07.59.79.68,1.27.71Z"/>
              <path class="cls-15" d="M281.32,92.13l.73-.59c.46.62,1.33.98,1.51,2.02-1.07-.17-1.54-1-2.24-1.43Z"/>
              <path class="cls-8" d="M340.94,76.58c.74-.47.87-.14.39.98-2.89,7.05-7.29,14.29-7.14,22.28.11,5.98,3.74,11.47,5.19,17.64,5.39-1.51,9.76-3.93,13.91-7.37,4.49-3.72,8.62-18.78,11.45-25.95.67,4.4-.24,8.23-1.23,12.17l-2.4,9.55c10.5-5.71,18.97-12.96,27.38-20.56.49-.52.65-.46.53.26-3.93,5.28-8.38,9.43-13.18,13.88-12.2,11.32-26,20.06-41.16,26.9-6.4,2.89-11.18,7.67-16.48,12.6-.79-2.36-1.17-5.27-3.28-6.54l-6.74-4.05-11.96-9.74c6.41,2.03,15.38,6.83,18.49,12.03,6.79-3.47,13.14-6.8,19.06-11.49-2.77-8.46-8.49-15.09-15.74-20.07-4.99-3.58-10.48-5.48-15.8-8.59,10.22,1.12,18.32,5.86,26.89,12.28-4.03-13.53-8.1-28.5-6.37-42.47l2.05,11.03c1.41,7.6,3.22,14.88,6.12,21.84,2.61-6.33,5.16-12.34,10.02-16.63Z"/>
              <path class="cls-14" d="M341.33,77.57l-.39-.98c.55-.49.81-1.62,2.05-1.28l-1.67,2.27Z"/>
              <path class="cls-2" d="M389.02,85.59l-.53-.26c.72-.65,1.05-1.49,2.01-1.96.3,1.36-1.01,1.59-1.48,2.22Z"/>
            </g>
          </g>
        </g>
      </g>
    </g>
  </g>
</svg>